<mxfile host="Electron" agent="Mozilla/5.0 (Windows NT 10.0; Win64; x64) AppleWebKit/537.36 (KHTML, like Gecko) draw.io/24.7.17 Chrome/128.0.6613.36 Electron/32.0.1 Safari/537.36" version="24.7.17">
  <diagram name="Сторінка-1" id="aOT43VarwXAKQYOGx3z2">
    <mxGraphModel dx="1050" dy="629" grid="1" gridSize="10" guides="1" tooltips="1" connect="1" arrows="1" fold="1" page="1" pageScale="1" pageWidth="827" pageHeight="1169" math="0" shadow="0">
      <root>
        <mxCell id="0" />
        <mxCell id="1" parent="0" />
        <mxCell id="39Kq2RMgdL79tX9WhkSD-4" value="" style="edgeStyle=orthogonalEdgeStyle;rounded=0;orthogonalLoop=1;jettySize=auto;html=1;" edge="1" parent="1" source="39Kq2RMgdL79tX9WhkSD-1" target="39Kq2RMgdL79tX9WhkSD-3">
          <mxGeometry relative="1" as="geometry" />
        </mxCell>
        <mxCell id="39Kq2RMgdL79tX9WhkSD-1" value="Початок" style="ellipse;whiteSpace=wrap;html=1;" vertex="1" parent="1">
          <mxGeometry x="374" y="10" width="80" height="50" as="geometry" />
        </mxCell>
        <mxCell id="39Kq2RMgdL79tX9WhkSD-6" value="" style="edgeStyle=orthogonalEdgeStyle;rounded=0;orthogonalLoop=1;jettySize=auto;html=1;" edge="1" parent="1" source="39Kq2RMgdL79tX9WhkSD-3" target="39Kq2RMgdL79tX9WhkSD-5">
          <mxGeometry relative="1" as="geometry" />
        </mxCell>
        <mxCell id="39Kq2RMgdL79tX9WhkSD-3" value="Ініціалізація змінної і масиву" style="whiteSpace=wrap;html=1;" vertex="1" parent="1">
          <mxGeometry x="371" y="80" width="86" height="50" as="geometry" />
        </mxCell>
        <mxCell id="39Kq2RMgdL79tX9WhkSD-8" value="" style="edgeStyle=orthogonalEdgeStyle;rounded=0;orthogonalLoop=1;jettySize=auto;html=1;" edge="1" parent="1" source="39Kq2RMgdL79tX9WhkSD-5" target="39Kq2RMgdL79tX9WhkSD-7">
          <mxGeometry relative="1" as="geometry" />
        </mxCell>
        <mxCell id="39Kq2RMgdL79tX9WhkSD-5" value="Запит на введення чисел" style="shape=parallelogram;perimeter=parallelogramPerimeter;whiteSpace=wrap;html=1;fixedSize=1;" vertex="1" parent="1">
          <mxGeometry x="354" y="150" width="119" height="40" as="geometry" />
        </mxCell>
        <mxCell id="39Kq2RMgdL79tX9WhkSD-10" value="" style="edgeStyle=orthogonalEdgeStyle;rounded=0;orthogonalLoop=1;jettySize=auto;html=1;" edge="1" parent="1" source="39Kq2RMgdL79tX9WhkSD-7" target="39Kq2RMgdL79tX9WhkSD-9">
          <mxGeometry relative="1" as="geometry" />
        </mxCell>
        <mxCell id="39Kq2RMgdL79tX9WhkSD-7" value="int i = 0; i &amp;lt; 5; ++i" style="rhombus;whiteSpace=wrap;html=1;" vertex="1" parent="1">
          <mxGeometry x="359" y="210" width="110" height="70" as="geometry" />
        </mxCell>
        <mxCell id="39Kq2RMgdL79tX9WhkSD-12" value="" style="edgeStyle=orthogonalEdgeStyle;rounded=0;orthogonalLoop=1;jettySize=auto;html=1;" edge="1" parent="1" source="39Kq2RMgdL79tX9WhkSD-9" target="39Kq2RMgdL79tX9WhkSD-11">
          <mxGeometry relative="1" as="geometry" />
        </mxCell>
        <mxCell id="39Kq2RMgdL79tX9WhkSD-9" value="Виводим номер числа" style="shape=parallelogram;perimeter=parallelogramPerimeter;whiteSpace=wrap;html=1;fixedSize=1;" vertex="1" parent="1">
          <mxGeometry x="356" y="300" width="116" height="40" as="geometry" />
        </mxCell>
        <mxCell id="39Kq2RMgdL79tX9WhkSD-14" value="" style="edgeStyle=orthogonalEdgeStyle;rounded=0;orthogonalLoop=1;jettySize=auto;html=1;" edge="1" parent="1" source="39Kq2RMgdL79tX9WhkSD-11" target="39Kq2RMgdL79tX9WhkSD-13">
          <mxGeometry relative="1" as="geometry" />
        </mxCell>
        <mxCell id="39Kq2RMgdL79tX9WhkSD-11" value="Вводим число" style="shape=parallelogram;perimeter=parallelogramPerimeter;whiteSpace=wrap;html=1;fixedSize=1;" vertex="1" parent="1">
          <mxGeometry x="356" y="360" width="116" height="40" as="geometry" />
        </mxCell>
        <mxCell id="39Kq2RMgdL79tX9WhkSD-15" style="edgeStyle=orthogonalEdgeStyle;rounded=0;orthogonalLoop=1;jettySize=auto;html=1;entryX=0;entryY=0.5;entryDx=0;entryDy=0;" edge="1" parent="1" source="39Kq2RMgdL79tX9WhkSD-13" target="39Kq2RMgdL79tX9WhkSD-7">
          <mxGeometry relative="1" as="geometry">
            <Array as="points">
              <mxPoint x="350" y="445" />
              <mxPoint x="350" y="245" />
            </Array>
          </mxGeometry>
        </mxCell>
        <mxCell id="39Kq2RMgdL79tX9WhkSD-17" value="" style="edgeStyle=orthogonalEdgeStyle;rounded=0;orthogonalLoop=1;jettySize=auto;html=1;" edge="1" parent="1" source="39Kq2RMgdL79tX9WhkSD-13" target="39Kq2RMgdL79tX9WhkSD-16">
          <mxGeometry relative="1" as="geometry" />
        </mxCell>
        <mxCell id="39Kq2RMgdL79tX9WhkSD-13" value="Додавання числа до суми" style="rounded=0;whiteSpace=wrap;html=1;" vertex="1" parent="1">
          <mxGeometry x="368" y="420" width="91" height="50" as="geometry" />
        </mxCell>
        <mxCell id="39Kq2RMgdL79tX9WhkSD-19" value="" style="edgeStyle=orthogonalEdgeStyle;rounded=0;orthogonalLoop=1;jettySize=auto;html=1;" edge="1" parent="1" source="39Kq2RMgdL79tX9WhkSD-16" target="39Kq2RMgdL79tX9WhkSD-18">
          <mxGeometry relative="1" as="geometry" />
        </mxCell>
        <mxCell id="39Kq2RMgdL79tX9WhkSD-16" value="Обчислення середнього арифметичного" style="whiteSpace=wrap;html=1;rounded=0;" vertex="1" parent="1">
          <mxGeometry x="365" y="490" width="96.5" height="55" as="geometry" />
        </mxCell>
        <mxCell id="39Kq2RMgdL79tX9WhkSD-21" value="" style="edgeStyle=orthogonalEdgeStyle;rounded=0;orthogonalLoop=1;jettySize=auto;html=1;" edge="1" parent="1" source="39Kq2RMgdL79tX9WhkSD-18" target="39Kq2RMgdL79tX9WhkSD-20">
          <mxGeometry relative="1" as="geometry" />
        </mxCell>
        <mxCell id="39Kq2RMgdL79tX9WhkSD-18" value="Вивід результату" style="shape=parallelogram;perimeter=parallelogramPerimeter;whiteSpace=wrap;html=1;fixedSize=1;rounded=0;" vertex="1" parent="1">
          <mxGeometry x="350" y="566" width="126.75" height="37.5" as="geometry" />
        </mxCell>
        <mxCell id="39Kq2RMgdL79tX9WhkSD-20" value="Кінець" style="ellipse;whiteSpace=wrap;html=1;rounded=0;" vertex="1" parent="1">
          <mxGeometry x="373.37" y="620" width="80" height="47.75" as="geometry" />
        </mxCell>
      </root>
    </mxGraphModel>
  </diagram>
</mxfile>
